<svg width="108" height="112" viewBox="0 0 108 112" fill="none" xmlns="http://www.w3.org/2000/svg">
<g filter="url(#filter0_di_220_74)">
<mask id="mask0_220_74" style="mask-type:alpha" maskUnits="userSpaceOnUse" x="4" y="9" width="100" height="95">
<rect x="4" y="9.66028" width="100" height="94.3396" rx="24" fill="#6A5AE0"/>
</mask>
<g mask="url(#mask0_220_74)">
<path d="M107.216 77.8183C107.216 91.0483 101.601 103.736 91.6049 113.092C81.6092 122.447 68.0524 127.702 53.9164 127.703C53.1874 127.703 52.4721 127.69 51.7431 127.664C47.8495 127.515 43.9848 126.971 40.2166 126.042C40.9456 125.694 41.6608 125.347 42.3761 124.974C42.3898 124.974 42.4036 124.961 42.4311 124.948L42.4448 124.935C43.2014 124.549 43.9441 124.163 44.6731 123.763C44.8519 123.66 45.0308 123.57 45.2096 123.48C45.8973 123.094 46.5851 122.708 47.259 122.296C47.4583 122.195 47.6512 122.083 47.8367 121.961C48.3594 121.665 48.8821 121.343 49.391 121.021C49.7487 120.803 50.1201 120.571 50.4639 120.352C50.9866 120.017 51.4955 119.683 52.0045 119.335C52.3483 119.116 52.6647 118.897 52.9948 118.653C53.435 118.37 53.8614 118.061 54.2878 117.752C54.6729 117.494 55.0443 117.224 55.4157 116.941C55.9384 116.567 56.4473 116.181 56.9562 115.769C57.1763 115.615 57.3964 115.447 57.6165 115.267C58.1666 114.842 58.7031 114.405 59.2395 113.954C59.5284 113.722 59.8172 113.49 60.1061 113.233C60.4224 112.976 60.725 112.718 61.0277 112.448C61.6054 111.959 62.1693 111.444 62.7333 110.929C62.8088 110.871 62.878 110.806 62.9396 110.736C63.4898 110.246 64.0262 109.731 64.5489 109.217C64.9203 108.882 65.2642 108.534 65.5943 108.187C65.9932 107.813 66.3645 107.427 66.7359 107.041C66.956 106.822 67.1623 106.603 67.3549 106.384C67.8501 105.869 68.3315 105.342 68.8129 104.814C69.0605 104.543 69.3081 104.26 69.5419 103.977C69.8995 103.591 70.2434 103.205 70.5598 102.806C70.8899 102.432 71.2063 102.046 71.5089 101.66C71.7977 101.325 72.0728 100.978 72.3342 100.643C72.6918 100.205 73.0356 99.7675 73.3658 99.3169C73.6959 98.8663 74.0535 98.4157 74.3836 97.9523C74.5474 97.7502 74.699 97.5396 74.8375 97.3215C75.3052 96.6778 75.7591 96.0213 76.1993 95.3647C76.7632 94.5537 77.2997 93.7298 77.8086 92.8931C78.0424 92.5326 78.2625 92.1721 78.4826 91.8117C80.2663 88.8674 81.8558 85.8235 83.2418 82.6973C83.4481 82.2596 83.6407 81.8219 83.8195 81.3714C84.0395 80.8951 84.2321 80.4059 84.4247 79.9167C84.5897 79.5176 84.7548 79.1056 84.9061 78.6937C85.0849 78.2431 85.25 77.7797 85.415 77.3291C86.0202 75.6813 86.5704 74.0207 87.0519 72.3342C87.1756 71.9094 87.2994 71.4975 87.4095 71.0727C87.492 70.8023 87.5608 70.5448 87.6296 70.2745L87.9597 68.9614C88.3998 67.172 88.7712 65.3697 89.0876 63.5417L89.2939 62.3059C89.3214 62.1128 89.3489 61.9325 89.3764 61.7394C89.459 61.2502 89.5277 60.7611 89.5827 60.2719C89.679 59.5381 89.7753 58.8043 89.8441 58.0705C89.8716 57.8774 89.8854 57.6843 89.8991 57.4912C89.9541 56.9892 89.9954 56.4742 90.0367 55.9722C90.0779 55.4701 90.1054 54.9423 90.1329 54.4273C90.1605 54.0669 90.1742 53.7064 90.188 53.3331C90.243 52.1488 90.2705 50.9644 90.2705 49.78C90.2705 49.175 90.2705 48.5828 90.243 47.9906C90.243 47.6817 90.243 47.3856 90.2292 47.0766C90.188 46.0081 90.1329 44.9525 90.0504 43.8969L90.0504 43.8583C90.0367 43.6008 90.0229 43.3433 89.9954 43.0859C89.9404 42.3778 89.8716 41.6827 89.8028 40.9746C89.8032 40.9525 89.7986 40.9305 89.7891 40.9103C91.6423 42.49 93.3751 44.1891 94.9747 45.9953L95.0159 46.0339C95.0235 46.0408 95.0283 46.0499 95.0297 46.0596C102.926 54.9913 107.237 66.2257 107.216 77.8183Z" fill="#FF8FA2"/>
<path d="M90.2165 49.55C90.2239 64.9495 85.7876 80.0644 77.377 93.2949C68.9665 106.526 56.8945 117.38 42.4389 124.709C42.421 124.728 42.3969 124.742 42.3701 124.747L42.3565 124.76C41.6419 125.121 40.9274 125.468 40.2129 125.816C35.7285 124.709 31.4216 123.046 27.4062 120.872C24.5013 119.305 21.7594 117.486 19.2165 115.439C19.6974 114.963 20.1646 114.487 20.6318 113.998L20.6454 113.985C20.6454 113.972 20.6593 113.959 20.673 113.946L20.6867 113.946C35.7231 98.2889 44.0268 77.9632 43.9916 56.9011C43.9938 47.8283 42.4634 38.8121 39.457 30.1875L39.4433 30.1875C39.4433 30.1617 39.4296 30.136 39.4296 30.1102L39.4157 30.1102C39.4079 30.0895 39.4032 30.0678 39.4021 30.0459C39.1273 29.2605 38.8387 28.4752 38.5364 27.7028L53.899 27.7028C67.1547 27.6856 79.9379 32.3146 89.7355 40.6798C89.8455 41.6582 89.9279 42.6367 89.9966 43.628C90.1478 45.5848 90.2165 47.5546 90.2165 49.55Z" fill="#9087E5"/>
<path d="M44 56.7829C44 57.6455 43.9864 58.508 43.9591 59.3577C43.9455 59.9113 43.9182 60.452 43.8909 61.0056C43.7819 63.2199 43.5774 65.4213 43.2774 67.6099C43.2093 68.1763 43.1275 68.7299 43.032 69.2835C42.9366 69.9658 42.8139 70.6353 42.6912 71.3176C42.5821 71.9613 42.4594 72.5921 42.3231 73.2358C42.2958 73.3903 42.2549 73.5448 42.2276 73.6993C42.1186 74.2271 41.9959 74.7678 41.8732 75.2956C41.2328 78.0393 40.4456 80.7506 39.5146 83.4191C39.3374 83.9469 39.1465 84.4619 38.9556 84.964C38.939 85.0259 38.9162 85.0863 38.8874 85.1442C38.6966 85.672 38.5057 86.1741 38.3012 86.6891C38.2467 86.8435 38.1785 87.0109 38.1103 87.1783C37.8922 87.7318 37.6604 88.2726 37.4287 88.8133C37.1696 89.4312 36.897 90.0492 36.6107 90.6542C36.3244 91.2851 36.0244 91.9159 35.7245 92.5467C35.4382 93.126 35.1382 93.7054 34.8519 94.2718C34.5384 94.8769 34.2248 95.4691 33.8976 96.0484C33.5704 96.6277 33.2432 97.2199 32.9023 97.7993C32.5615 98.3786 32.2207 98.9579 31.8798 99.5244C31.539 100.091 31.1709 100.67 30.8028 101.237C30.4347 101.803 30.0666 102.357 29.6848 102.91C28.935 104.017 28.1579 105.112 27.3535 106.18C26.5491 107.249 25.7039 108.304 24.8586 109.347C23.577 110.879 22.2501 112.373 20.8776 113.827L20.864 113.827C20.8503 113.84 20.8504 113.84 20.8504 113.853C20.8504 113.856 20.849 113.86 20.8464 113.862C20.8438 113.865 20.8404 113.866 20.8367 113.866C20.3732 114.355 19.896 114.844 19.4188 115.321C17.2707 113.578 15.2738 111.675 13.4474 109.63C13.4336 109.606 13.4151 109.584 13.3929 109.566C5.37516 100.587 0.984625 89.2163 1.00004 77.4713L1.00004 27.5848L38.5875 27.5848C38.8874 28.3573 39.1737 29.1297 39.4328 29.915L39.4464 29.9279C39.4476 29.9498 39.4523 29.9715 39.46 29.9923L39.4737 29.9923L39.4737 30.0309C39.4729 30.0379 39.4735 30.0449 39.4759 30.0516C39.4783 30.0583 39.4823 30.0644 39.4873 30.0695L39.5009 30.0695C39.5131 30.1186 39.5314 30.1661 39.5555 30.2111L39.7191 30.7132C40.1826 32.0778 40.6053 33.4553 40.987 34.8586C41.2597 35.7984 41.5051 36.7639 41.7368 37.7295C42.1595 39.4803 42.5276 41.2698 42.8412 43.0851C42.9093 43.5228 42.9911 43.9476 43.0457 44.3853C43.2093 45.4539 43.3592 46.5224 43.4819 47.6038C43.5365 48.0029 43.5774 48.4149 43.6046 48.814C43.6864 49.5606 43.741 50.3202 43.7955 51.0669C43.9318 52.9594 44 54.8647 44 56.7829Z" fill="#C4D0FB"/>
</g>
<rect x="4" y="4" width="100" height="90.566" rx="24" fill="white"/>
<path d="M44.1332 71.7584L23.1271 52.0661C20.9476 50.0229 20.9995 46.7234 23.2423 44.7397C25.422 42.8119 28.8657 42.8458 31.0006 44.8161L37.9397 51.2201C44.4796 57.2557 55.2232 56.7368 61.0487 50.104L77.9979 30.8059C78.7544 29.9445 79.7854 29.326 80.9439 29.0383C86.3031 27.7079 90.3481 33.5287 86.817 37.4898L56.7663 71.1992C53.558 74.7981 47.6979 75.0575 44.1332 71.7584Z" fill="#43B727"/>
</g>
<defs>
<filter id="filter0_di_220_74" x="0" y="2" width="108" height="110" filterUnits="userSpaceOnUse" color-interpolation-filters="sRGB">
<feFlood flood-opacity="0" result="BackgroundImageFix"/>
<feColorMatrix in="SourceAlpha" type="matrix" values="0 0 0 0 0 0 0 0 0 0 0 0 0 0 0 0 0 0 127 0" result="hardAlpha"/>
<feOffset dy="4"/>
<feGaussianBlur stdDeviation="2"/>
<feComposite in2="hardAlpha" operator="out"/>
<feColorMatrix type="matrix" values="0 0 0 0 0 0 0 0 0 0 0 0 0 0 0 0 0 0 0.25 0"/>
<feBlend mode="normal" in2="BackgroundImageFix" result="effect1_dropShadow_220_74"/>
<feBlend mode="normal" in="SourceGraphic" in2="effect1_dropShadow_220_74" result="shape"/>
<feColorMatrix in="SourceAlpha" type="matrix" values="0 0 0 0 0 0 0 0 0 0 0 0 0 0 0 0 0 0 127 0" result="hardAlpha"/>
<feOffset dx="-2" dy="-2"/>
<feGaussianBlur stdDeviation="2"/>
<feComposite in2="hardAlpha" operator="arithmetic" k2="-1" k3="1"/>
<feColorMatrix type="matrix" values="0 0 0 0 0 0 0 0 0 0 0 0 0 0 0 0 0 0 0.5 0"/>
<feBlend mode="normal" in2="shape" result="effect2_innerShadow_220_74"/>
</filter>
</defs>
</svg>
