<svg width="108" height="108" viewBox="0 0 108 108" fill="none" xmlns="http://www.w3.org/2000/svg">
<g filter="url(#filter0_di_220_92)">
<mask id="mask0_220_92" style="mask-type:alpha" maskUnits="userSpaceOnUse" x="4" y="0" width="100" height="100">
<rect x="4" width="100" height="100" rx="24" fill="#6A5AE0"/>
</mask>
<g mask="url(#mask0_220_92)">
<path d="M107.216 72.2475C107.216 86.2713 101.6 99.7207 91.6048 109.637C81.6092 119.554 68.0524 125.125 53.9164 125.125C53.1874 125.125 52.4721 125.111 51.7431 125.084C47.8495 124.926 43.9848 124.35 40.2165 123.365C40.9455 122.996 41.6608 122.628 42.376 122.232C42.3898 122.232 42.4035 122.218 42.4311 122.205L42.4448 122.191C43.2013 121.782 43.9441 121.372 44.6731 120.949C44.8519 120.84 45.0307 120.745 45.2095 120.649C45.8973 120.24 46.585 119.83 47.259 119.394C47.4583 119.287 47.6512 119.168 47.8367 119.039C48.3594 118.725 48.8821 118.384 49.391 118.043C49.7486 117.811 50.12 117.565 50.4639 117.333C50.9866 116.978 51.4955 116.624 52.0044 116.255C52.3483 116.023 52.6647 115.791 52.9948 115.532C53.4349 115.232 53.8613 114.904 54.2877 114.577C54.6729 114.304 55.0443 114.017 55.4156 113.717C55.9383 113.321 56.4473 112.912 56.9562 112.475C57.1763 112.312 57.3963 112.134 57.6164 111.943C58.1666 111.493 58.7031 111.029 59.2395 110.551C59.5283 110.306 59.8172 110.06 60.1061 109.787C60.4224 109.514 60.725 109.241 61.0276 108.955C61.6053 108.436 62.1693 107.89 62.7332 107.345C62.8087 107.283 62.8779 107.215 62.9396 107.14C63.4897 106.621 64.0262 106.075 64.5489 105.53C64.9203 105.175 65.2641 104.806 65.5942 104.438C65.9931 104.042 66.3645 103.633 66.7359 103.223C66.956 102.992 67.1623 102.76 67.3549 102.528C67.85 101.982 68.3315 101.422 68.8129 100.863C69.0605 100.576 69.3081 100.276 69.5419 99.9758C69.8995 99.5664 70.2434 99.157 70.5597 98.734C70.8899 98.3383 71.2062 97.9289 71.5088 97.5195C71.7977 97.1647 72.0728 96.7963 72.3341 96.4415C72.6917 95.9776 73.0356 95.5136 73.3657 95.036C73.6959 94.5584 74.0535 94.0808 74.3836 93.5895C74.5474 93.3753 74.699 93.1521 74.8375 92.9209C75.3052 92.2386 75.7591 91.5427 76.1992 90.8467C76.7632 89.9871 77.2996 89.1137 77.8086 88.2267C78.0424 87.8447 78.2625 87.4626 78.4825 87.0805C80.2663 83.9596 81.8558 80.733 83.2417 77.4193C83.4481 76.9553 83.6406 76.4914 83.8194 76.0138C84.0395 75.5089 84.2321 74.9903 84.4246 74.4718C84.5897 74.0488 84.7548 73.6121 84.9061 73.1754C85.0849 72.6978 85.2499 72.2066 85.415 71.729C86.0202 69.9823 86.5704 68.222 87.0518 66.4344C87.1756 65.9841 87.2994 65.5474 87.4094 65.0971C87.492 64.8106 87.5608 64.5376 87.6295 64.2511L87.9596 62.8592C88.3998 60.9624 88.7712 59.052 89.0875 57.1143L89.2939 55.8043C89.3214 55.5996 89.3489 55.4086 89.3764 55.2039C89.4589 54.6854 89.5277 54.1668 89.5827 53.6483C89.679 52.8705 89.7753 52.0927 89.8441 51.3149C89.8716 51.1102 89.8853 50.9055 89.8991 50.7008C89.9541 50.1686 89.9954 49.6228 90.0366 49.0906C90.0779 48.5584 90.1054 47.9989 90.1329 47.4531C90.1604 47.071 90.1742 46.6889 90.1879 46.2932C90.243 45.0378 90.2705 43.7824 90.2705 42.527C90.2705 41.8856 90.2705 41.2579 90.243 40.6302C90.243 40.3027 90.243 39.9888 90.2292 39.6613C90.1879 38.5287 90.1329 37.4098 90.0504 36.2908L90.0504 36.2499C90.0366 35.977 90.0229 35.7041 89.9954 35.4311C89.9403 34.6806 89.8716 33.9437 89.8028 33.1932C89.8032 33.1698 89.7985 33.1464 89.789 33.125C91.6422 34.7995 93.3751 36.6006 94.9746 38.5151L95.0159 38.556C95.0235 38.5634 95.0283 38.5729 95.0296 38.5833C102.926 48.0509 107.237 59.9593 107.216 72.2475Z" fill="#FF8FA2"/>
<path d="M90.2165 42.2831C90.2239 58.6065 85.7876 74.6283 77.377 88.6527C68.9665 102.677 56.8945 114.183 42.4389 121.951C42.421 121.972 42.3969 121.987 42.3701 121.992L42.3565 122.006C41.6419 122.388 40.9274 122.757 40.2129 123.125C35.7285 121.951 31.4216 120.189 27.4062 117.885C24.5013 116.223 21.7594 114.295 19.2165 112.126C19.6974 111.621 20.1646 111.116 20.6318 110.598L20.6454 110.584C20.6454 110.57 20.6593 110.557 20.673 110.543L20.6867 110.543C35.7231 93.9463 44.0268 72.4011 43.9916 50.0753C43.9938 40.458 42.4634 30.9009 39.457 21.7588L39.4433 21.7588C39.4433 21.7315 39.4296 21.7042 39.4296 21.6769L39.4157 21.6769C39.4079 21.655 39.4032 21.632 39.4021 21.6087C39.1273 20.7762 38.8387 19.9438 38.5364 19.1251L53.899 19.125C67.1547 19.1068 79.9379 24.0135 89.7355 32.8807C89.8455 33.9178 89.9279 34.9549 89.9966 36.0057C90.1478 38.08 90.2165 40.1679 90.2165 42.2831Z" fill="#9087E5"/>
<path d="M44 49.95C44 50.8643 43.9864 51.7786 43.9591 52.6792C43.9455 53.266 43.9182 53.8392 43.8909 54.426C43.7819 56.7731 43.5774 59.1067 43.2774 61.4266C43.2093 62.027 43.1275 62.6138 43.032 63.2006C42.9366 63.9238 42.8139 64.6335 42.6912 65.3567C42.5821 66.039 42.4594 66.7077 42.3231 67.39C42.2958 67.5538 42.2549 67.7175 42.2276 67.8813C42.1186 68.4408 41.9959 69.0139 41.8732 69.5734C41.2328 72.4818 40.4456 75.3557 39.5146 78.1843C39.3374 78.7438 39.1465 79.2897 38.9556 79.8219C38.939 79.8875 38.9162 79.9515 38.8874 80.0129C38.6966 80.5724 38.5057 81.1046 38.3012 81.6505C38.2467 81.8142 38.1785 81.9916 38.1103 82.169C37.8922 82.7558 37.6604 83.329 37.4287 83.9021C37.1696 84.5572 36.897 85.2122 36.6107 85.8536C36.3244 86.5222 36.0244 87.1909 35.7245 87.8596C35.4382 88.4737 35.1382 89.0877 34.8519 89.6882C34.5384 90.3296 34.2248 90.9573 33.8976 91.5714C33.5704 92.1855 33.2432 92.8132 32.9023 93.4273C32.5615 94.0414 32.2207 94.6555 31.8798 95.2559C31.539 95.8563 31.1709 96.4704 30.8028 97.0709C30.4347 97.6713 30.0666 98.2581 29.6848 98.8449C28.935 100.018 28.1579 101.178 27.3535 102.311C26.5491 103.444 25.7039 104.563 24.8586 105.668C23.577 107.292 22.2501 108.875 20.8776 110.417L20.864 110.417C20.8504 110.431 20.8504 110.431 20.8504 110.444C20.8504 110.448 20.849 110.451 20.8464 110.454C20.8438 110.456 20.8404 110.458 20.8367 110.458C20.3732 110.977 19.896 111.495 19.4188 112C17.2707 110.152 15.2738 108.135 13.4474 105.968C13.4336 105.942 13.4151 105.919 13.3929 105.9C5.37516 96.3821 0.984625 84.3294 1.00004 71.8797L1.00004 19L38.5875 19C38.8874 19.8188 39.1737 20.6376 39.4328 21.47L39.4464 21.4836C39.4476 21.5069 39.4523 21.5299 39.46 21.5519L39.4737 21.5519L39.4737 21.5928C39.4729 21.6002 39.4735 21.6077 39.4759 21.6148C39.4783 21.6219 39.4823 21.6283 39.4873 21.6337L39.501 21.6337C39.5131 21.6858 39.5314 21.7362 39.5555 21.7838L39.7191 22.3161C40.1826 23.7626 40.6053 25.2227 40.987 26.7102C41.2597 27.7064 41.5051 28.7298 41.7368 29.7533C42.1595 31.6092 42.5276 33.5061 42.8412 35.4302C42.9093 35.8942 42.9911 36.3445 43.0457 36.8085C43.2093 37.9412 43.3592 39.0738 43.4819 40.2201C43.5365 40.6431 43.5774 41.0798 43.6046 41.5029C43.6864 42.2943 43.741 43.0995 43.7955 43.891C43.9318 45.897 44 47.9167 44 49.95Z" fill="#C4D0FB"/>
</g>
<rect x="4" width="100" height="90" rx="24" fill="white"/>
<path d="M33.2132 66.6396C30.8701 64.2964 30.8701 60.4975 33.2132 58.1543L37.4558 53.9117C42.1421 49.2254 42.1421 41.6274 37.4558 36.9411L33.2132 32.6985C30.8701 30.3553 30.8701 26.5563 33.2132 24.2132V24.2132C35.5563 21.87 39.3553 21.87 41.6985 24.2132L45.9411 28.4558C50.6274 33.1421 58.2254 33.1421 62.9117 28.4558L67.1543 24.2132C69.4975 21.87 73.2965 21.87 75.6396 24.2132V24.2132C77.9828 26.5563 77.9828 30.3553 75.6396 32.6985L71.397 36.9411C66.7107 41.6274 66.7107 49.2254 71.397 53.9117L75.5273 58.042C77.9325 60.4472 77.9325 64.3467 75.5273 66.7519V66.7519C73.0917 69.1875 69.1321 69.1521 66.7404 66.6734L62.7602 62.5485C58.1818 57.8036 50.6021 57.736 45.9398 62.3983L41.6985 66.6396C39.3553 68.9827 35.5563 68.9827 33.2132 66.6396V66.6396Z" fill="#FF0000"/>
</g>
<defs>
<filter id="filter0_di_220_92" x="0" y="-2" width="108" height="110" filterUnits="userSpaceOnUse" color-interpolation-filters="sRGB">
<feFlood flood-opacity="0" result="BackgroundImageFix"/>
<feColorMatrix in="SourceAlpha" type="matrix" values="0 0 0 0 0 0 0 0 0 0 0 0 0 0 0 0 0 0 127 0" result="hardAlpha"/>
<feOffset dy="4"/>
<feGaussianBlur stdDeviation="2"/>
<feComposite in2="hardAlpha" operator="out"/>
<feColorMatrix type="matrix" values="0 0 0 0 0 0 0 0 0 0 0 0 0 0 0 0 0 0 0.25 0"/>
<feBlend mode="normal" in2="BackgroundImageFix" result="effect1_dropShadow_220_92"/>
<feBlend mode="normal" in="SourceGraphic" in2="effect1_dropShadow_220_92" result="shape"/>
<feColorMatrix in="SourceAlpha" type="matrix" values="0 0 0 0 0 0 0 0 0 0 0 0 0 0 0 0 0 0 127 0" result="hardAlpha"/>
<feOffset dx="-2" dy="-2"/>
<feGaussianBlur stdDeviation="2"/>
<feComposite in2="hardAlpha" operator="arithmetic" k2="-1" k3="1"/>
<feColorMatrix type="matrix" values="0 0 0 0 0 0 0 0 0 0 0 0 0 0 0 0 0 0 0.5 0"/>
<feBlend mode="normal" in2="shape" result="effect2_innerShadow_220_92"/>
</filter>
</defs>
</svg>
