<svg width="25" height="25" viewBox="0 0 25 25" fill="none" xmlns="http://www.w3.org/2000/svg">
<path d="M9.02066 21.7558L6.68308 19.0286L17.5783 8.28537L19.8003 10.5074L9.02066 21.7558ZM20.4786 9.77148L17.9382 7.23111L15.1747 4.34186L15.1745 4.34165L15.1743 4.34142L14.4514 5.03238L14.4517 5.03262L16.8774 7.57208L6.00013 18.2977L3.43783 15.7693L18.1464 1.06066C18.3417 0.865398 18.6583 0.865398 18.8536 1.06066L23.4797 5.68682C23.6669 5.87402 23.6757 6.17469 23.4999 6.37255L20.4786 9.77148ZM2.55946 16.6476L2.73071 16.4764L5.63396 19.3412L8.20361 22.3392L7.85952 22.5112C7.83187 22.525 7.803 22.5363 7.77328 22.5448L4.659 23.4346L1.68809 20.2085L2.42492 16.8927C2.44555 16.7999 2.49222 16.7149 2.55946 16.6476ZM1.42381 21.3977L3.60856 23.7701L1.51744 24.4671C1.14874 24.59 0.786924 24.2637 0.871234 23.8843L1.42381 21.3977Z" stroke="white"/>
</svg>
